<svg xmlns="http://www.w3.org/2000/svg"  viewBox="0 0 100 100" width="500px" height="500px"><path d="M 47.755859 14 C 34.644047 14.258674 24.796619 21.430134 19.089844 32.347656 A 2.0002 2.0002 0 1 0 22.634766 34.201172 C 23.256509 33.011727 23.930036 31.886449 24.640625 30.810547 L 25.650391 31.726562 A 1.0001 1.0001 0 1 0 26.992188 30.244141 L 25.798828 29.164062 C 26.250066 28.56072 26.715787 27.977694 27.199219 27.417969 L 29.773438 29.105469 A 1.0008183 1.0008183 0 1 0 30.871094 27.431641 L 28.576172 25.929688 C 29.267856 25.231454 29.990863 24.576179 30.742188 23.962891 L 34.529297 28.878906 A 1.0001 1.0001 0 1 0 36.113281 27.658203 L 32.337891 22.757812 C 37.155581 19.400121 43.083037 17.680129 50.222656 18.037109 C 55.544986 18.303364 60.643899 19.700027 65.183594 21.972656 L 62.587891 25.736328 A 1.0001 1.0001 0 1 0 64.234375 26.871094 L 66.958984 22.921875 C 67.558177 23.263956 68.147132 23.618872 68.722656 23.992188 L 65.685547 27.626953 A 1.0001 1.0001 0 1 0 67.21875 28.910156 L 70.378906 25.130859 C 71.029658 25.606782 71.656936 26.107021 72.269531 26.623047 L 67.953125 31.646484 A 1.0001 1.0001 0 1 0 69.470703 32.949219 L 73.763672 27.953125 C 74.729442 28.867897 75.634739 29.835228 76.476562 30.849609 L 73.052734 33.480469 A 1.0001 1.0001 0 1 0 74.271484 35.066406 L 77.703125 32.429688 C 81.533853 37.683592 83.687216 44.03664 83.324219 50.933594 C 83.19374 53.401175 82.838506 55.816521 82.287109 58.152344 L 77.033203 56.732422 A 1.0001 1.0001 0 0 0 76.736328 56.695312 A 1.0001 1.0001 0 0 0 76.511719 58.664062 L 81.777344 60.085938 C 81.429438 61.285582 81.029129 62.459329 80.574219 63.603516 L 77.371094 62.291016 A 1.0001 1.0001 0 0 0 76.982422 62.210938 A 1.0001 1.0001 0 0 0 76.613281 64.140625 L 79.792969 65.443359 C 75.081356 75.674444 66.017472 83.113129 54.34375 83.986328 L 55.234375 79.255859 A 1.0001 1.0001 0 0 0 54.226562 78.056641 A 1.0001 1.0001 0 0 0 53.269531 78.884766 L 52.289062 84.078125 C 51.673023 84.083165 51.050985 84.072471 50.421875 84.041016 C 50.208318 84.030355 50.00118 84.007657 49.789062 83.994141 L 51.279297 80.013672 A 1.0001 1.0001 0 0 0 50.289062 78.650391 A 1.0001 1.0001 0 0 0 49.40625 79.3125 L 47.720703 83.816406 C 45.151118 83.532956 42.698703 83.030018 40.378906 82.316406 L 42.404297 78.304688 A 1.0001 1.0001 0 0 0 41.470703 76.841797 A 1.0001 1.0001 0 0 0 40.619141 77.404297 L 38.466797 81.667969 C 37.405824 81.274595 36.377951 80.832792 35.380859 80.345703 L 38.431641 76.662109 A 1.0001 1.0001 0 0 0 37.648438 75.013672 A 1.0001 1.0001 0 0 0 36.892578 75.386719 L 33.611328 79.345703 A 1.0001691 1.0001691 0 0 0 33.576172 79.392578 C 31.728628 78.340661 30.009521 77.115715 28.429688 75.722656 L 30.912109 73.908203 A 1.0001 1.0001 0 0 0 30.357422 72.09375 A 1.0001 1.0001 0 0 0 29.732422 72.292969 L 26.949219 74.328125 C 26.542218 73.917597 26.146758 73.494047 25.761719 73.058594 L 26.625 72.783203 A 1.0001 1.0001 0 0 0 26.283203 70.828125 A 1.0001 1.0001 0 0 0 26.019531 70.876953 L 24.390625 71.394531 C 23.810831 70.63838 23.250674 69.861679 22.732422 69.041016 A 2.0002 2.0002 0 1 0 19.351562 71.175781 C 25.9059 81.554716 37.098023 87.381919 50.222656 88.037109 C 71.378918 89.094922 86.250693 71.335979 87.318359 51.144531 C 88.382732 30.921454 70.689648 15.05493 50.421875 14.041016 C 49.519001 13.995872 48.62998 13.982755 47.755859 14 z M 41.439453 33.449219 A 2.0002 2.0002 0 0 0 39.769531 36.457031 L 46.916016 49.113281 C 30.887832 49.383726 18.381244 48.996658 8.5195312 48.119141 A 2.0002 2.0002 0 1 0 8.1640625 52.103516 C 18.060333 52.984108 30.575531 53.363223 46.40625 53.113281 L 39.896484 62.037109 A 2.0002 2.0002 0 1 0 43.126953 64.394531 L 51.769531 52.544922 A 2.0002 2.0002 0 0 0 52.125 50.205078 A 2.0002 2.0002 0 0 0 52.083984 50.126953 L 43.253906 34.490234 A 2.0002 2.0002 0 0 0 41.439453 33.449219 z M 73.035156 40.125 C 72.652656 40.058719 72.246484 40.222313 72.021484 40.570312 C 71.721484 41.034312 71.852266 41.652172 72.322266 41.951172 C 72.782266 42.250172 73.401172 42.116344 73.701172 41.652344 C 74.001172 41.188344 73.862344 40.568531 73.402344 40.269531 C 73.287344 40.195031 73.162656 40.147094 73.035156 40.125 z M 68.994141 44.978516 C 68.611641 44.912234 68.207422 45.073875 67.982422 45.421875 C 67.682422 45.885875 67.82125 46.505688 68.28125 46.804688 C 68.74125 47.103688 69.362109 46.967906 69.662109 46.503906 C 69.962109 46.039906 69.831328 45.420094 69.361328 45.121094 C 69.246328 45.046594 69.121641 45.000609 68.994141 44.978516 z M 74.619141 46.976562 C 74.232891 46.910141 73.828828 47.073875 73.611328 47.421875 C 73.311328 47.885875 73.443109 48.505688 73.912109 48.804688 C 74.372109 49.103688 74.992969 48.967906 75.292969 48.503906 C 75.592969 48.039906 75.452187 47.420094 74.992188 47.121094 C 74.874687 47.046344 74.747891 46.998703 74.619141 46.976562 z"/></svg>