<?xml version="1.0"?><svg xmlns="http://www.w3.org/2000/svg"  viewBox="0 0 80 80" width="480px" height="480px">    <path d="M 15 9 L 15 71 L 47.791016 71 L 48.560547 69 L 17 69 L 17 11 L 49 11 L 49 25 L 63 25 L 63 53.255859 L 65 51.255859 L 65 23.585938 L 50.414062 9 L 15 9 z M 51 12.414062 L 61.585938 23 L 51 23 L 51 12.414062 z M 22 13 A 1 1 0 0 0 21 14 A 1 1 0 0 0 22 15 A 1 1 0 0 0 23 14 A 1 1 0 0 0 22 13 z M 22 17 A 1 1 0 0 0 21 18 A 1 1 0 0 0 22 19 A 1 1 0 0 0 23 18 A 1 1 0 0 0 22 17 z M 22 21 A 1 1 0 0 0 21 22 A 1 1 0 0 0 22 23 A 1 1 0 0 0 23 22 A 1 1 0 0 0 22 21 z M 22 25 A 1 1 0 0 0 21 26 A 1 1 0 0 0 22 27 A 1 1 0 0 0 23 26 A 1 1 0 0 0 22 25 z M 22 29 A 1 1 0 0 0 21 30 A 1 1 0 0 0 22 31 A 1 1 0 0 0 23 30 A 1 1 0 0 0 22 29 z M 22 33 A 1 1 0 0 0 21 34 A 1 1 0 0 0 22 35 A 1 1 0 0 0 23 34 A 1 1 0 0 0 22 33 z M 57 36 A 2 2 0 0 0 55 38 A 2 2 0 0 0 55.070312 38.515625 L 45.517578 48.068359 A 2 2 0 0 0 45 48 A 2 2 0 0 0 44.484375 48.070312 L 38.931641 42.517578 A 2 2 0 0 0 39 42 A 2 2 0 0 0 37 40 A 2 2 0 0 0 35 42 A 2 2 0 0 0 35.070312 42.515625 L 28.517578 49.068359 A 2 2 0 0 0 28 49 A 2 2 0 0 0 26 51 A 2 2 0 0 0 28 53 A 2 2 0 0 0 30 51 A 2 2 0 0 0 29.929688 50.484375 L 36.482422 43.931641 A 2 2 0 0 0 37 44 A 2 2 0 0 0 37.515625 43.929688 L 43.068359 49.482422 A 2 2 0 0 0 43 50 A 2 2 0 0 0 45 52 A 2 2 0 0 0 47 50 A 2 2 0 0 0 46.929688 49.484375 L 56.482422 39.931641 A 2 2 0 0 0 57 40 A 2 2 0 0 0 59 38 A 2 2 0 0 0 57 36 z M 22 37 A 1 1 0 0 0 21 38 A 1 1 0 0 0 22 39 A 1 1 0 0 0 23 38 A 1 1 0 0 0 22 37 z M 22 41 A 1 1 0 0 0 21 42 A 1 1 0 0 0 22 43 A 1 1 0 0 0 23 42 A 1 1 0 0 0 22 41 z M 22 45 A 1 1 0 0 0 21 46 A 1 1 0 0 0 22 47 A 1 1 0 0 0 23 46 A 1 1 0 0 0 22 45 z M 74.488281 48.001953 C 73.257906 48.001828 72.028297 48.46975 71.091797 49.40625 L 52.097656 68.400391 C 51.998656 68.499391 51.922094 68.618047 51.871094 68.748047 L 48.066406 78.640625 C 47.927406 79.009625 48.013969 79.426031 48.292969 79.707031 C 48.571969 79.986031 48.990375 80.074594 49.359375 79.933594 L 59.251953 76.128906 C 59.382953 76.077906 59.501609 76.001344 59.599609 75.902344 L 78.59375 56.908203 C 79.50075 56.000203 80 54.794719 80 53.511719 C 80 52.227719 79.50075 51.022234 78.59375 50.115234 L 77.886719 49.408203 C 76.949719 48.471203 75.718656 48.002078 74.488281 48.001953 z M 22 49 A 1 1 0 0 0 21 50 A 1 1 0 0 0 22 51 A 1 1 0 0 0 23 50 A 1 1 0 0 0 22 49 z M 74.488281 50.001953 C 75.206531 50.001953 75.925656 50.274312 76.472656 50.820312 L 77.179688 51.527344 C 78.238687 52.585344 78.239688 54.432141 77.179688 55.494141 L 77.044922 55.630859 L 72.369141 50.955078 L 72.505859 50.820312 C 73.052859 50.274313 73.770031 50.001953 74.488281 50.001953 z M 70.955078 52.369141 L 75.630859 57.044922 L 73.044922 59.630859 L 68.369141 54.955078 L 70.955078 52.369141 z M 22 53 A 1 1 0 0 0 21 54 A 1 1 0 0 0 22 55 A 1 1 0 0 0 23 54 A 1 1 0 0 0 22 53 z M 66.955078 56.369141 L 71.630859 61.044922 L 59.480469 73.191406 C 59.328469 72.838406 59.126844 72.492078 58.839844 72.205078 C 58.246844 71.612078 57.404719 71.351281 56.761719 71.238281 C 56.647719 70.596281 56.387922 69.755109 55.794922 69.162109 C 55.506922 68.874109 55.160641 68.671531 54.806641 68.519531 L 66.955078 56.369141 z M 22 57 A 1 1 0 0 0 21 58 A 1 1 0 0 0 22 59 A 1 1 0 0 0 23 58 A 1 1 0 0 0 22 57 z M 22 61 A 1 1 0 0 0 21 62 A 1 1 0 0 0 22 63 A 1 1 0 0 0 23 62 A 1 1 0 0 0 22 61 z M 22 65 A 1 1 0 0 0 21 66 A 1 1 0 0 0 22 67 A 1 1 0 0 0 23 66 A 1 1 0 0 0 22 65 z M 53.460938 70.1875 C 53.810938 70.2575 54.180859 70.376172 54.380859 70.576172 C 54.728859 70.924172 54.846609 71.789391 54.849609 72.150391 L 54.849609 73.150391 L 55.849609 73.150391 C 56.196609 73.150391 57.074828 73.269141 57.423828 73.619141 C 57.624828 73.820141 57.7425 74.189062 57.8125 74.539062 L 52.623047 76.535156 L 51.464844 75.376953 L 53.460938 70.1875 z"/></svg>