<svg xmlns="http://www.w3.org/2000/svg"  viewBox="0 0 404 404" width="468px" height="468px"><path d="M 23.765625 0 C 14.775625 0 7.4199219 7.3566562 7.4199219 16.347656 L 7.4199219 387.65234 C 7.4199219 396.68034 14.737625 404 23.765625 404 L 320.48047 404 C 329.47147 404 336.82617 396.64334 336.82617 387.65234 L 336.82617 308.06641 C 310.25917 315.29641 283.70906 311.17094 270.28906 308.08594 L 224.12305 355.17969 L 202.44531 333.92773 L 249.32617 286.10352 C 245.49617 267.92352 240.34959 228.00852 258.93359 194.72852 C 275.98959 164.18452 305.17117 154.07292 336.82617 144.79492 L 336.82617 117.89258 L 250.8125 117.89258 C 233.3985 117.89258 219.28125 103.77633 219.28125 86.361328 L 219.28125 0 L 23.765625 0 z M 249.64062 4.0292969 L 249.64062 86.367188 C 249.64062 87.011188 250.1665 87.535156 250.8125 87.535156 L 331.7832 87.535156 L 329.35352 85.099609 L 249.64062 4.0292969 z M 396.58008 156.72266 C 380.13508 163.19366 357.86947 170.696 327.85547 178.875 C 307.77647 184.347 293.9025 194.3723 285.4375 209.5293 C 276.6955 225.1833 275.29259 243.70308 276.18359 258.70508 L 329.24219 204.57812 L 350.92188 225.83008 L 296.41211 281.43555 C 310.51511 282.49955 328.18078 281.39561 343.30078 272.97461 C 358.57478 264.46661 369.07944 249.33967 374.52344 228.01367 C 382.11944 198.25267 389.96008 174.46266 396.58008 156.72266 z M 53.835938 164.63672 L 213.36719 164.63672 L 213.36719 194.99414 L 53.835938 194.99414 L 53.835938 164.63672 z M 53.835938 244.03516 L 213.36719 244.03516 L 213.36719 274.39258 L 53.835938 274.39258 L 53.835938 244.03516 z M 53.835938 323.43359 L 178.98828 323.43359 L 178.98828 353.79297 L 53.835938 353.79297 L 53.835938 323.43359 z"/></svg>